<svg id="Capa_1" data-name="Capa 1" xmlns="http://www.w3.org/2000/svg" viewBox="0 0 78.3 61.49"><defs><style>.cls-1{fill:#2e5f89;}</style></defs><path class="cls-1" d="M26.93,58.41a3,3,0,0,1-3-3v-6H18.14A11.45,11.45,0,0,1,6.71,38V16A11.45,11.45,0,0,1,18.14,4.52H60.25A11.45,11.45,0,0,1,71.68,16V38A11.45,11.45,0,0,1,60.25,49.38H39.67l-10.91,8.4A3,3,0,0,1,26.93,58.41ZM18.14,7.3A8.66,8.66,0,0,0,9.49,16V38a8.66,8.66,0,0,0,8.65,8.65H26.7v8.8a.22.22,0,0,0,.12.21.19.19,0,0,0,.24,0l11.66-9H60.25A8.67,8.67,0,0,0,68.91,38V16A8.67,8.67,0,0,0,60.25,7.3Z"/><circle class="cls-1" cx="27.49" cy="26.37" r="2.71"/><circle class="cls-1" cx="38.98" cy="26.37" r="2.71"/><circle class="cls-1" cx="50.43" cy="26.37" r="2.71"/></svg>