<svg id="Capa_1" data-name="Capa 1" xmlns="http://www.w3.org/2000/svg" viewBox="0 0 95.56 65.26"><defs><style>.cls-1{fill:#d13b43;}</style></defs><path class="cls-1" d="M79.28,29.52c-.37-.21-.74-.41-1.11-.59A10.07,10.07,0,0,0,77,28.4a10.51,10.51,0,0,0,1-.83,10.2,10.2,0,0,0,.87-.87,10.88,10.88,0,1,0-16.22,0,10.44,10.44,0,0,0,.88.88,11.57,11.57,0,0,0,1,.82c-.41.16-.81.34-1.2.53s-.75.39-1.1.6a16.85,16.85,0,0,0-6.09,6.17c-.19.34-.37.67-.54,1l-.23.5-.24.57-.24-.14a8.35,8.35,0,0,0-.77-.43L53.82,37c-.23-.12-.47-.23-.71-.33s-.33-.15-.5-.21a10,10,0,0,0,.91-.7.35.35,0,0,1,.06-.14l.06,0a10.2,10.2,0,0,0,.87-.87,10.87,10.87,0,1,0-16.19,0,11.9,11.9,0,0,0,.87.87l0,0,0,.06a10.34,10.34,0,0,0,1,.78,4.93,4.93,0,0,0-.53.22A5.11,5.11,0,0,0,39,37c-.13.06-.26.12-.38.19s-.49.26-.73.41l-.29.17-.27-.68L37,36.82l.13-.08c-.16-.35-.34-.69-.53-1a16.22,16.22,0,0,0-2.5-3.36,16.8,16.8,0,0,0-3.56-2.83c-.35-.21-.72-.4-1.09-.59s-.81-.38-1.23-.53a9.34,9.34,0,0,0,1.05-.83,10.2,10.2,0,0,0,.87-.87,10.88,10.88,0,1,0-16.2,0,8.93,8.93,0,0,0,.87.87,10.22,10.22,0,0,0,1,.83,10.07,10.07,0,0,0-1.21.53c-.38.18-.74.38-1.1.59A16.79,16.79,0,0,0,5.3,44v4a1.52,1.52,0,1,0,3,0V44a13.77,13.77,0,0,1,8.18-12.56,11.83,11.83,0,0,1,1.61-.59,12.77,12.77,0,0,1,2.92-.54h0c.32,0,.64,0,1,0s.71,0,1.06,0h.05a13.37,13.37,0,0,1,2.83.55h0a15.35,15.35,0,0,1,1.6.59,13.71,13.71,0,0,1,6.52,6.09c.19.35.36.71.52,1.07s.3.76.42,1.16c-.32.3-.63.62-.92.93a11.89,11.89,0,0,0-.88,1,16.67,16.67,0,0,0-3.63,10.4v4a1.52,1.52,0,1,0,3,0v-4a13.64,13.64,0,0,1,2.84-8.34,9.35,9.35,0,0,1,.82-1,13.75,13.75,0,0,1,3.11-2.52h0a12.21,12.21,0,0,1,1.13-.6l.28-.13a12.9,12.9,0,0,1,1.61-.59,12.34,12.34,0,0,1,2.92-.53,8.71,8.71,0,0,1,1,0,8.6,8.6,0,0,1,1,0A13.66,13.66,0,0,1,52,39.52l.21.11a9.56,9.56,0,0,1,1.1.57,13.44,13.44,0,0,1,1.55,1l0,0,.35.29a12.69,12.69,0,0,1,1.36,1.29,10.61,10.61,0,0,1,.79,1,13.6,13.6,0,0,1,2.8,8.29v4a1.52,1.52,0,1,0,3,0v-4a16.67,16.67,0,0,0-3.67-10.45,12.5,12.5,0,0,0-.89-1c-.3-.32-.6-.62-.92-.93a8.77,8.77,0,0,1,.43-1.15,11.77,11.77,0,0,1,.52-1.07,13.83,13.83,0,0,1,6.55-6.05,16,16,0,0,1,1.6-.6,14.66,14.66,0,0,1,2.85-.54h0c.35,0,.71,0,1.07,0s.65,0,1,0h0a13.91,13.91,0,0,1,4.54,1.13A13.76,13.76,0,0,1,84.49,44v4a1.53,1.53,0,0,0,3.05,0V44A16.82,16.82,0,0,0,79.28,29.52ZM27,25.54a7.25,7.25,0,0,1-1.33.87,7.85,7.85,0,0,1-2.66.82h0a7,7,0,0,1-.92.06,7.14,7.14,0,0,1-.93-.06h0a7.68,7.68,0,0,1-2.64-.82,7.51,7.51,0,0,1-1.34-.87,7.85,7.85,0,1,1,9.85,0Zm24.36,8.11a7.17,7.17,0,0,1-1.32.87,7.57,7.57,0,0,1-2.62.82,7,7,0,0,1-2,0,7.64,7.64,0,0,1-2.62-.82h0a7.72,7.72,0,0,1-1.32-.87,7.85,7.85,0,1,1,9.87,0ZM75.7,25.54a7.43,7.43,0,0,1-1.33.87h0a7.9,7.9,0,0,1-2.64.82h0a7.26,7.26,0,0,1-.93.06,7.14,7.14,0,0,1-.93-.06h0a7.73,7.73,0,0,1-2.65-.82h0a7.84,7.84,0,1,1,8.53-.87Z"/></svg>