<svg id="Capa_1" data-name="Capa 1" xmlns="http://www.w3.org/2000/svg" viewBox="0 0 96 61.94"><defs><style>.cls-1{fill:#e1733f;}</style></defs><path class="cls-1" d="M82.75,56.13H12.66a6.51,6.51,0,0,1-6.5-6.5v-36a6.5,6.5,0,0,1,6.5-6.49H82.75a6.5,6.5,0,0,1,6.5,6.49v36A6.51,6.51,0,0,1,82.75,56.13ZM12.66,9.92a3.73,3.73,0,0,0-3.72,3.72v36a3.73,3.73,0,0,0,3.72,3.73H82.75a3.73,3.73,0,0,0,3.72-3.73v-36a3.73,3.73,0,0,0-3.72-3.72Z"/><path class="cls-1" d="M74.75,25.9H53.17a1.39,1.39,0,0,1,0-2.78H74.75a1.39,1.39,0,1,1,0,2.78Z"/><path class="cls-1" d="M74.75,34.23H53.17a1.39,1.39,0,0,1,0-2.78H74.75a1.39,1.39,0,0,1,0,2.78Z"/><path class="cls-1" d="M43.43,40.58a12.8,12.8,0,0,0-7.85-8.93q-.33-.13-.66-.24a7.71,7.71,0,1,0-7.91,0q-.33.11-.66.24a12.75,12.75,0,0,0-7.85,8.93,3.5,3.5,0,0,0,.66,3A3.69,3.69,0,0,0,22.07,45H39.85a3.69,3.69,0,0,0,2.91-1.42A3.54,3.54,0,0,0,43.43,40.58ZM26.25,24.8A4.72,4.72,0,1,1,31,29.51,4.72,4.72,0,0,1,26.25,24.8ZM40.58,41.89a1,1,0,0,1-.73.35H22.07a.91.91,0,0,1-.72-.35.76.76,0,0,1-.16-.65,10.06,10.06,0,0,1,19.54,0A.73.73,0,0,1,40.58,41.89Z"/></svg>