<svg id="Capa_1" data-name="Capa 1" xmlns="http://www.w3.org/2000/svg" viewBox="0 0 60.72 67.69"><defs><style>.cls-1{fill:#fff;}</style></defs><path class="cls-1" d="M8.74,52.08a4.4,4.4,0,0,0,4.5,4.27H39.68a4.43,4.43,0,0,0,4.41-3.55,4.36,4.36,0,0,0,3.75-4.21V29.38H50a.82.82,0,0,0,.43-.12l3.93-2.55a.78.78,0,0,0,.35-.65.76.76,0,0,0-.35-.65l-3.93-2.58a.83.83,0,0,0-.43-.15H47.84V18.45a1,1,0,0,0-.35-.67l-9-9.12a.77.77,0,0,0-.18-.18l0,0a.79.79,0,0,0-.56-.23H16.93a4.44,4.44,0,0,0-4.43,3.55A4.35,4.35,0,0,0,8.74,16ZM21.93,27.82V24.23H49.19v3.59Zm28.82-.63V24.93l1.73,1.13ZM38.72,11l6.43,6.62h-5.4a1,1,0,0,1-.72-.28,1,1,0,0,1-.31-.72ZM16.93,9.78H37.16v6.86a2.58,2.58,0,0,0,2.59,2.55h6.53v3.49H21.2a.86.86,0,0,0-.82.82v.1l-2.31-.05h0a.8.8,0,0,0-.77.8l0,3.38a.78.78,0,0,0,.78.77h2.29v.12a.8.8,0,0,0,.82.76h1.63v1.16a1.75,1.75,0,0,0,.47,1.2,1.45,1.45,0,0,0,1,.45h9.43a.77.77,0,0,0,.77-.78.76.76,0,0,0-.77-.77H24.38V29.38H46.28V48.59a2.83,2.83,0,0,1-2.92,2.71H16.93A2.85,2.85,0,0,1,14,48.59v-36s0-.08,0-.12a.17.17,0,0,0,0-.1A2.84,2.84,0,0,1,16.93,9.78ZM20.38,27H18.86l0-1.82,1.55,0ZM10.29,16a2.83,2.83,0,0,1,2.14-2.62V48.59a4.4,4.4,0,0,0,4.5,4.26H42.48a2.85,2.85,0,0,1-2.8,1.94H13.24a2.85,2.85,0,0,1-3-2.71Z"/><path class="cls-1" d="M18.1,35.78H30.86a.77.77,0,0,0,.77-.78.76.76,0,0,0-.77-.77H18.1a.77.77,0,0,0-.78.77A.78.78,0,0,0,18.1,35.78Z"/><path class="cls-1" d="M18.1,39.56H40.3a.78.78,0,1,0,0-1.55H18.1a.78.78,0,1,0,0,1.55Z"/><path class="cls-1" d="M18.1,43.35H40.3a.78.78,0,0,0,0-1.56H18.1a.78.78,0,0,0,0,1.56Z"/><path class="cls-1" d="M18.1,47.13H40.3a.78.78,0,0,0,.78-.78.77.77,0,0,0-.78-.77H18.1a.77.77,0,0,0-.78.77A.78.78,0,0,0,18.1,47.13Z"/></svg>