<svg id="Capa_1" data-name="Capa 1" xmlns="http://www.w3.org/2000/svg" viewBox="0 0 61.71 72.66"><defs><style>.cls-1{fill:#fff;}</style></defs><path class="cls-1" d="M50.66,9.22H22.28a.89.89,0,0,0-.89.89v5.32H17a.89.89,0,0,0-.89.89v5.32H11.64a.89.89,0,0,0-.89.89v39a.88.88,0,0,0,.89.88H40a.88.88,0,0,0,.89-.88V56.24h4.43a.89.89,0,0,0,.89-.89V50h4.43a.89.89,0,0,0,.89-.89v-39A.89.89,0,0,0,50.66,9.22ZM39.13,60.67H12.52V23.42H32v6.21a.89.89,0,0,0,.88.88h6.21ZM33.81,28.74V24.67l4.07,4.07ZM44.46,54.46H40.91V29.63s0,0,0-.06a.86.86,0,0,0,0-.23s0,0,0-.06l0,0a.85.85,0,0,0-.17-.25l-7.1-7.1a.85.85,0,0,0-.25-.17l0,0h-.06a.85.85,0,0,0-.23,0l0,0H17.85V17.21H44.46Zm5.32-6.21H46.23V16.32a.89.89,0,0,0-.89-.89H23.17V11H49.78Z"/><path class="cls-1" d="M18.73,35.83H17V50a.88.88,0,0,0,.89.88H35.59V49.14H18.73Z"/><path class="cls-1" d="M24.05,42.93a.85.85,0,0,0-.62.26l-3.55,3.55L21.13,48l3.29-3.29h4.07a.88.88,0,0,0,.63-.26l5.32-5.32-1.26-1.25-5.06,5.06Z"/><rect class="cls-1" x="16.96" y="26.96" width="1.77" height="1.77"/><rect class="cls-1" x="20.51" y="26.96" width="7.1" height="1.77"/><rect class="cls-1" x="16.96" y="30.51" width="10.64" height="1.77"/><rect class="cls-1" x="18.73" y="54.46" width="3.55" height="1.77"/><rect class="cls-1" x="24.05" y="54.46" width="8.87" height="1.77"/></svg>