<svg id="Capa_1" data-name="Capa 1" xmlns="http://www.w3.org/2000/svg" viewBox="0 0 75.21 80.07"><defs><style>.cls-1{fill:#74b757;}</style></defs><path class="cls-1" d="M71,46.39A14.61,14.61,0,0,0,66.9,36.23,11.11,11.11,0,0,0,51.72,22.4a15,15,0,0,0,.17-2.23A14.19,14.19,0,0,0,44,7.45a1.3,1.3,0,1,0-1.16,2.33A11.6,11.6,0,0,1,48.22,25a1.29,1.29,0,0,0,.31,1.51A16.14,16.14,0,0,1,39,54.61v-7a9.43,9.43,0,0,0,8.11-9.32,1.3,1.3,0,1,0-2.6,0A6.82,6.82,0,0,1,39,45V35.83a6.44,6.44,0,0,0,5.12-6.29,1.31,1.31,0,0,0-2.61,0A3.82,3.82,0,0,1,39,33.13v-8.4a1.31,1.31,0,1,0-2.61,0V45a6.82,6.82,0,0,1-5.51-6.68,1.3,1.3,0,1,0-2.6,0,9.43,9.43,0,0,0,8.11,9.32v7a16.14,16.14,0,0,1-9.52-28.06A1.3,1.3,0,0,0,27.19,25,11.59,11.59,0,0,1,32.58,9.78a1.3,1.3,0,0,0-1.15-2.34,14.2,14.2,0,0,0-7.91,12.73,15,15,0,0,0,.17,2.23A11.11,11.11,0,0,0,8.51,36.23a14.56,14.56,0,0,0,9.13,24.66V71.32a1.3,1.3,0,1,0,2.6,0V60.89a14.6,14.6,0,0,0,9.91-5.21,18.69,18.69,0,0,0,6.25,1.54v14.1a1.31,1.31,0,0,0,2.61,0V57.22a18.64,18.64,0,0,0,6.24-1.54,14.65,14.65,0,0,0,9.91,5.21V71.32a1.31,1.31,0,0,0,2.61,0V60.89A14.57,14.57,0,0,0,71,46.39ZM20.24,58.27V52.52a1.3,1.3,0,1,0-2.6,0v5.75a12,12,0,0,1-6.71-20.75,1.3,1.3,0,0,0,.3-1.51A8.5,8.5,0,0,1,24.07,25.66,18.74,18.74,0,0,0,27.8,54.43,12.06,12.06,0,0,1,20.24,58.27Zm37.53,0V52.52a1.31,1.31,0,0,0-2.61,0v5.75a12,12,0,0,1-7.55-3.85,18.73,18.73,0,0,0,3.73-28.76A8.5,8.5,0,0,1,65,32.44,8.33,8.33,0,0,1,64.17,36a1.32,1.32,0,0,0,.31,1.51,12,12,0,0,1-6.71,20.75Z"/><path class="cls-1" d="M37.71,8.59a1.26,1.26,0,0,0,.92-.38,1.3,1.3,0,0,0,0-1.84A1.3,1.3,0,0,0,37.71,6a1.3,1.3,0,0,0-.92,2.22A1.28,1.28,0,0,0,37.71,8.59Z"/><path class="cls-1" d="M44.13,10.53a11.51,11.51,0,0,0-12.76-.06L29.83,8.39a14.07,14.07,0,0,1,15.66-.07Z"/></svg>