<svg id="Capa_1" data-name="Capa 1" xmlns="http://www.w3.org/2000/svg" viewBox="0 0 100.42 74.09"><defs><style>.cls-1{fill:#4995cf;}</style></defs><path class="cls-1" d="M29.67,50.3a6.31,6.31,0,0,1-6.3-6.3V34.62H14a6.31,6.31,0,0,1-6.3-6.3A6.32,6.32,0,0,1,14,22h9.38V12.64a6.3,6.3,0,0,1,12.59,0V22h9.37a6.3,6.3,0,1,1,0,12.6H36V44A6.31,6.31,0,0,1,29.67,50.3ZM14,24.8a3.53,3.53,0,1,0,0,7.05H26.14V44a3.52,3.52,0,1,0,7,0V31.85H45.33a3.53,3.53,0,1,0,0-7H33.18V12.64a3.53,3.53,0,0,0-3.51-3.51,3.52,3.52,0,0,0-3.53,3.51V24.8Z"/><path class="cls-1" d="M94.68,21.08l-3.15-3.14a3.71,3.71,0,0,0-5.23,0L50.13,54.11a.59.59,0,0,0-.13.18h0a.25.25,0,0,0,0,.07l-4.72,12a.74.74,0,0,0,.17.8.73.73,0,0,0,.79.16l12-4.71.06,0h0a1.1,1.1,0,0,0,.18-.14L94.68,26.32a3.72,3.72,0,0,0,0-5.24ZM47.25,65.37,48.58,62,50.64,64Zm4.9-1.92-3-3L50.93,56l5.73,5.73ZM58,60.91,51.7,54.63,76,30.33l6.28,6.29ZM93.63,25.27l-7.16,7.16-4.71-4.71a.74.74,0,0,0-1.05,0,.73.73,0,0,0,0,1l4.71,4.72-2.09,2.09L77,29.29,87.34,19a2.23,2.23,0,0,1,3.15,0l3.14,3.14A2.23,2.23,0,0,1,93.63,25.27Z"/><path class="cls-1" d="M45.94,67.88a1.21,1.21,0,0,1-.85-.36,1.19,1.19,0,0,1-.27-1.28c4.73-12.09,4.73-12.09,4.75-12.12h0l.06-.09a1,1,0,0,1,.17-.23L86,17.61a4.18,4.18,0,0,1,5.89,0L95,20.75a4.18,4.18,0,0,1,0,5.9L58.84,62.81a1.29,1.29,0,0,1-.3.22l-.11,0-12,4.71A1.12,1.12,0,0,1,45.94,67.88ZM50.4,54.52l0,0c0,.07-4.68,12-4.68,12a.3.3,0,0,0,.06.3.28.28,0,0,0,.3.06l12.05-4.71.42.26-.33-.32L94.35,26a3.24,3.24,0,0,0,0-4.58l-3.14-3.14a3.24,3.24,0,0,0-4.59,0Zm-4,11.66,2-5,3.07,3.06Zm2.32-3.38-.69,1.75,1.75-.68ZM52,64l-3.41-3.41,2.14-5.45,6.73,6.73Zm-2.32-3.63,2.55,2.55,3.58-1.4-4.73-4.73ZM58,61.57l-6.94-6.94,25-25,6.94,6.94Zm-5.63-6.94L58,60.26,81.63,36.62,76,31Zm31-18.41-6.94-6.93L87,18.66a2.67,2.67,0,0,1,3.79,0L94,21.8a2.7,2.7,0,0,1,0,3.8l-7.49,7.48-5-5A.29.29,0,0,0,81,28a.3.3,0,0,0-.08.2.32.32,0,0,0,.08.2l5,5ZM77.7,29.29l5.63,5.63,1.44-1.44-4.39-4.39a1.21,1.21,0,0,1,1.71-1.7l4.38,4.38,6.83-6.83a1.74,1.74,0,0,0,0-2.48l-3.14-3.15a1.77,1.77,0,0,0-2.49,0Z"/></svg>