<svg id="Capa_1" data-name="Capa 1" xmlns="http://www.w3.org/2000/svg" viewBox="0 0 80.96 71.54"><defs><style>.cls-1{fill:#999;}.cls-2{fill:#fff;}</style></defs><path class="cls-1" d="M65.66,17H15.89a5.16,5.16,0,0,0-5.15,5.15v35a5.16,5.16,0,0,0,5.15,5.15H65.66a5.16,5.16,0,0,0,5.15-5.15v-35A5.16,5.16,0,0,0,65.66,17ZM68,57.15a2.37,2.37,0,0,1-2.37,2.37H15.89a2.37,2.37,0,0,1-2.37-2.37V31.69l-.15-.05a1.8,1.8,0,0,1-1.23-1.71V21.55A1.81,1.81,0,0,1,14,19.74H67.4a1.81,1.81,0,0,1,1.81,1.81v8.38A1.81,1.81,0,0,1,68,31.63Z"/><path class="cls-1" d="M67.4,17H14a4.6,4.6,0,0,0-4.59,4.59v8.38a4.58,4.58,0,0,0,1.38,3.28,4.74,4.74,0,0,0,1.74,1.06l1,.35L35.6,42.11l1.39.47,1.38.47V40.11L37,39.65l-1.39-.47L13.52,31.69l-.15-.05a1.8,1.8,0,0,1-1.23-1.71V21.55A1.81,1.81,0,0,1,14,19.74H67.4a1.81,1.81,0,0,1,1.81,1.81v8.38A1.81,1.81,0,0,1,68,31.63l0,0L45.9,39.19l-1.39.47-1.39.47v2.93l1.39-.47,1.39-.48L68,34.56l.85-.29A4.59,4.59,0,0,0,72,29.93V21.55A4.59,4.59,0,0,0,67.4,17Z"/><path class="cls-2" d="M45.9,37.87v1.32l-1.39.47-1.39.47V37.87l-4.77,0v2.21L37,39.65l-1.39-.47V37.87a2.76,2.76,0,0,1,2.75-2.75h4.8A2.76,2.76,0,0,1,45.9,37.87Z"/><path class="cls-2" d="M43,36.51H38.46A1.47,1.47,0,0,0,37,38v6.26a1.47,1.47,0,0,0,1.47,1.48H43a1.48,1.48,0,0,0,1.48-1.48V38A1.47,1.47,0,0,0,43,36.51Zm.09,7.82-4.74,0V37.9l4.77,0Z"/><path class="cls-1" d="M43.15,35.12h-4.8a2.76,2.76,0,0,0-2.75,2.75v6.48a2.75,2.75,0,0,0,2.75,2.75h4.8a2.75,2.75,0,0,0,2.75-2.75V37.87A2.76,2.76,0,0,0,43.15,35.12Zm0,9.21-4.74,0V37.9l4.77,0Z"/><path class="cls-1" d="M47.79,8.73H34A6.25,6.25,0,0,0,27.78,15v4.77H54V15A6.25,6.25,0,0,0,47.79,8.73ZM30.55,17V15A3.48,3.48,0,0,1,34,11.5H47.79A3.48,3.48,0,0,1,51.26,15v2Z"/></svg>