<svg id="Capa_1" data-name="Capa 1" xmlns="http://www.w3.org/2000/svg" viewBox="0 0 58.4 80.07"><defs><style>.cls-1{fill:#f1c747;}</style></defs><path class="cls-1" d="M30,6.82A21.25,21.25,0,0,0,15.91,44c3.36,3.36,3.05,10.53,3,10.61a1.26,1.26,0,0,0,.39,1,1.38,1.38,0,0,0,.91.38H39.64a1.27,1.27,0,0,0,.92-.38,1.44,1.44,0,0,0,.38-1c0-.08-.38-7.25,3-10.61l.22-.23A21.18,21.18,0,0,0,30,6.82ZM42.16,42c-.08.07-.23.23-.23.3-3,3.21-3.51,8.47-3.59,11H21.48c-.08-2.52-.61-8-3.82-11.29a18.58,18.58,0,1,1,24.5,0Z"/><path class="cls-1" d="M29.87,12.24a1.3,1.3,0,0,0,0,2.6A13.89,13.89,0,0,1,43.76,28.73a1.3,1.3,0,0,0,2.6,0A16.43,16.43,0,0,0,29.87,12.24Z"/><path class="cls-1" d="M38.34,57.42H21.4a3.21,3.21,0,0,0,0,6.41H38.27a3.29,3.29,0,0,0,3.28-3.2A3.23,3.23,0,0,0,38.34,57.42Zm0,3.74H21.4a.61.61,0,0,1-.61-.61.56.56,0,0,1,.61-.61H38.27a.61.61,0,0,1,.61.61A.55.55,0,0,1,38.34,61.16Z"/><path class="cls-1" d="M35.83,65.13H23.92a3.21,3.21,0,0,0,0,6.41H35.83A3.22,3.22,0,0,0,39,68.33,3.17,3.17,0,0,0,35.83,65.13Zm0,3.74H23.92a.61.61,0,0,1-.61-.61.56.56,0,0,1,.61-.61H35.83a.61.61,0,0,1,0,1.22Z"/></svg>